<?xml version="1.0" encoding="UTF-8" standalone="no"?>
<!-- Created with Inkscape (http://www.inkscape.org/) -->

<svg
   xmlns:dc="http://purl.org/dc/elements/1.1/"
   xmlns:cc="http://creativecommons.org/ns#"
   xmlns:rdf="http://www.w3.org/1999/02/22-rdf-syntax-ns#"
   xmlns:svg="http://www.w3.org/2000/svg"
   xmlns="http://www.w3.org/2000/svg"
   xmlns:sodipodi="http://sodipodi.sourceforge.net/DTD/sodipodi-0.dtd"
   xmlns:inkscape="http://www.inkscape.org/namespaces/inkscape"
   width="118mm"
   height="34mm"
   viewBox="0 0 118 34"
   version="1.1"
   id="svg8"
   inkscape:version="0.92.5 (2060ec1f9f, 2020-04-08)"
   sodipodi:docname="logo-inkscape.svg">
  <defs
     id="defs2">
    <inkscape:perspective
       sodipodi:type="inkscape:persp3d"
       inkscape:vp_x="7.6039583 : 57.142798 : 1"
       inkscape:vp_y="0 : 1645.7796 : 0"
       inkscape:vp_z="257.52442 : 57.142798 : 1"
       inkscape:persp3d-origin="132.56419 : -0.45948946 : 1"
       id="perspective3713" />
  </defs>
  <sodipodi:namedview
     id="base"
     pagecolor="#ffffff"
     bordercolor="#666666"
     borderopacity="1.0"
     inkscape:pageopacity="0.0"
     inkscape:pageshadow="2"
     inkscape:zoom="1.979899"
     inkscape:cx="188.01225"
     inkscape:cy="8.1459382"
     inkscape:document-units="mm"
     inkscape:current-layer="layer1"
     showgrid="false"
     inkscape:window-width="1920"
     inkscape:window-height="1016"
     inkscape:window-x="1080"
     inkscape:window-y="867"
     inkscape:window-maximized="1"
     inkscape:snap-text-baseline="true"
     fit-margin-top="0"
     fit-margin-left="0"
     fit-margin-right="0"
     fit-margin-bottom="0" />
  <metadata
     id="metadata5">
    <rdf:RDF>
      <cc:Work
         rdf:about="">
        <dc:format>image/svg+xml</dc:format>
        <dc:type
           rdf:resource="http://purl.org/dc/dcmitype/StillImage" />
        <dc:title />
      </cc:Work>
    </rdf:RDF>
  </metadata>
  <g
     inkscape:label="Layer 1"
     inkscape:groupmode="layer"
     id="layer1"
     transform="translate(-74,-163)">
    <rect
       id="rect3729"
       width="22"
       height="22"
       x="74"
       y="163"
       style="stroke-width:0.32083333" />
    <rect
       id="rect3729-3"
       width="22"
       height="10"
       x="74"
       y="187"
       style="stroke-width:0.21630579" />
    <path
       id="rect3795-6"
       style="stroke-width:0.42335168"
       d="m 102,195 h 6 v 2 h -6 z m 6,-6 h 2 v 6 h -2 z m -8,0 h 2 v 6 h -2 z m 2,-2 h 6 v 2 h -6 z"
       inkscape:connector-curvature="0" />
    <path
       id="rect3795-8-09"
       style="stroke-width:0.24442221"
       d="m 120,187 h 2 v 2 h -2 z m 0,2 h 2 v 2 h -2 z m 0,2 h 2 v 2 h -2 z m 0,2 h 2 v 2 h -2 z m -6,2 h 8 v 2 h -8 z m -2,-8 h 2 v 8 h -2 z"
       inkscape:connector-curvature="0" />
    <path
       id="rect3795-8-03-9-75"
       style="stroke-width:0.24442221"
       d="m 132,189 h 2 v 2 h -2 z m -2,-2 h 2 v 2 h -2 z m -2,0 h 2 v 2 h -2 z m -4,2 h 2 v 2 h -2 z m 0,-2 h 2 v 2 h -2 z m 2,2 h 2 v 2 h -2 z m -2,2 h 2 v 2 h -2 z m 0,2 h 2 v 2 h -2 z m 0,2 h 2 v 2 h -2 z"
       inkscape:connector-curvature="0" />
    <path
       id="rect3795-8-7-8"
       style="stroke-width:0.24442221"
       d="m 144,189 h 2 v 2 h -2 z m 0,4 h 2 v 2 h -2 z m -6,2 h 6 v 2 h -6 z m -2,-6 h 2 v 6 h -2 z m 2,-2 h 6 v 2 h -6 z"
       inkscape:connector-curvature="0" />
    <path
       id="rect3795-8-03-9-75-5"
       style="stroke-width:0.24442221"
       d="m 156,189 h 2 v 2 h -2 z m -2,-2 h 2 v 2 h -2 z m -2,0 h 2 v 2 h -2 z m -4,2 h 2 v 2 h -2 z m 0,-2 h 2 v 2 h -2 z m 2,2 h 2 v 2 h -2 z m -2,2 h 2 v 2 h -2 z m 0,2 h 2 v 2 h -2 z m 0,2 h 2 v 2 h -2 z"
       inkscape:connector-curvature="0" />
    <path
       id="rect3795-8-03-9-7-8-0-1"
       style="stroke-width:0.24442221"
       d="m 162,187 h 2 v 2 h -2 z m 2,0 h 2 v 2 h -2 z m 2,0 h 2 v 2 h -2 z m 2,2 h 2 v 2 h -2 z m -6,2 h 2 v 2 h -2 z m 2,0 h 2 v 2 h -2 z m 2,0 h 2 v 2 h -2 z m 2,0 h 2 v 2 h -2 z m 0,2 h 2 v 2 h -2 z m 0,2 h 2 v 2 h -2 z m -2,0 h 2 v 2 h -2 z m -2,0 h 2 v 2 h -2 z m -2,0 h 2 v 2 h -2 z m -2,-2 h 2 v 2 h -2 z"
       inkscape:connector-curvature="0" />
    <path
       id="rect3795-8-03-9-2-1-6-4"
       style="stroke-width:0.24442221"
       d="m 180,183 h 2 v 2 h -2 z m -2,0 h 2 v 2 h -2 z m -2,2 h 2 v 2 h -2 z m 4,2 h 2 v 2 h -2 z m -2,0 h 2 v 2 h -2 z m -2,2 h 2 v 2 h -2 z m 0,-2 h 2 v 2 h -2 z m 0,4 h 2 v 2 h -2 z m 0,2 h 2 v 2 h -2 z m 0,2 h 2 v 2 h -2 z m -2,-8 h 2 v 2 h -2 z"
       inkscape:connector-curvature="0" />
    <path
       id="rect3795-8-03-9-2-1-6-6-7-60"
       style="stroke-width:0.24442221"
       d="m 190,195 h 2 v 2 h -2 z m -2,-2 h 2 v 2 h -2 z m 0,-2 h 2 v 2 h -2 z m 0,-8 h 2 v 2 h -2 z m 0,6 h 2 v 2 h -2 z m 0,-4 h 2 v 2 h -2 z m 2,2 h 2 v 2 h -2 z m -2,0 h 2 v 2 h -2 z m -2,0 h 2 v 2 h -2 z"
       inkscape:connector-curvature="0" />
  </g>
</svg>
