<?xml version="1.0" encoding="UTF-8" standalone="no"?>
<svg
   xmlns:dc="http://purl.org/dc/elements/1.1/"
   xmlns:cc="http://creativecommons.org/ns#"
   xmlns:rdf="http://www.w3.org/1999/02/22-rdf-syntax-ns#"
   xmlns:svg="http://www.w3.org/2000/svg"
   xmlns="http://www.w3.org/2000/svg"
   id="svg8"
   version="1.1"
   viewBox="0 0 118 34"
   height="34mm"
   width="118mm">
  <defs
     id="defs2" />
  <metadata
     id="metadata5">
    <rdf:RDF>
      <cc:Work
         rdf:about="">
        <dc:format>image/svg+xml</dc:format>
        <dc:type
           rdf:resource="http://purl.org/dc/dcmitype/StillImage" />
        <dc:title></dc:title>
      </cc:Work>
    </rdf:RDF>
  </metadata>
  <g
     transform="translate(-74,-163)"
     id="layer1">
    <rect
       style="stroke-width:0.32083333"
       y="163"
       x="74"
       height="22"
       width="22"
       id="rect3729" />
    <rect
       style="stroke-width:0.21630579"
       y="187"
       x="74"
       height="10"
       width="22"
       id="rect3729-3" />
    <path
       d="m 102,195 h 6 v 2 h -6 z m 6,-6 h 2 v 6 h -2 z m -8,0 h 2 v 6 h -2 z m 2,-2 h 6 v 2 h -6 z"
       style="stroke-width:0.42335168"
       id="rect3795-6" />
    <path
       d="m 120,187 h 2 v 2 h -2 z m 0,2 h 2 v 2 h -2 z m 0,2 h 2 v 2 h -2 z m 0,2 h 2 v 2 h -2 z m -6,2 h 8 v 2 h -8 z m -2,-8 h 2 v 8 h -2 z"
       style="stroke-width:0.24442221"
       id="rect3795-8-09" />
    <path
       d="m 132,189 h 2 v 2 h -2 z m -2,-2 h 2 v 2 h -2 z m -2,0 h 2 v 2 h -2 z m -4,2 h 2 v 2 h -2 z m 0,-2 h 2 v 2 h -2 z m 2,2 h 2 v 2 h -2 z m -2,2 h 2 v 2 h -2 z m 0,2 h 2 v 2 h -2 z m 0,2 h 2 v 2 h -2 z"
       style="stroke-width:0.24442221"
       id="rect3795-8-03-9-75" />
    <path
       d="m 144,189 h 2 v 2 h -2 z m 0,4 h 2 v 2 h -2 z m -6,2 h 6 v 2 h -6 z m -2,-6 h 2 v 6 h -2 z m 2,-2 h 6 v 2 h -6 z"
       style="stroke-width:0.24442221"
       id="rect3795-8-7-8" />
    <path
       d="m 156,189 h 2 v 2 h -2 z m -2,-2 h 2 v 2 h -2 z m -2,0 h 2 v 2 h -2 z m -4,2 h 2 v 2 h -2 z m 0,-2 h 2 v 2 h -2 z m 2,2 h 2 v 2 h -2 z m -2,2 h 2 v 2 h -2 z m 0,2 h 2 v 2 h -2 z m 0,2 h 2 v 2 h -2 z"
       style="stroke-width:0.24442221"
       id="rect3795-8-03-9-75-5" />
    <path
       d="m 162,187 h 2 v 2 h -2 z m 2,0 h 2 v 2 h -2 z m 2,0 h 2 v 2 h -2 z m 2,2 h 2 v 2 h -2 z m -6,2 h 2 v 2 h -2 z m 2,0 h 2 v 2 h -2 z m 2,0 h 2 v 2 h -2 z m 2,0 h 2 v 2 h -2 z m 0,2 h 2 v 2 h -2 z m 0,2 h 2 v 2 h -2 z m -2,0 h 2 v 2 h -2 z m -2,0 h 2 v 2 h -2 z m -2,0 h 2 v 2 h -2 z m -2,-2 h 2 v 2 h -2 z"
       style="stroke-width:0.24442221"
       id="rect3795-8-03-9-7-8-0-1" />
    <path
       d="m 180,183 h 2 v 2 h -2 z m -2,0 h 2 v 2 h -2 z m -2,2 h 2 v 2 h -2 z m 4,2 h 2 v 2 h -2 z m -2,0 h 2 v 2 h -2 z m -2,2 h 2 v 2 h -2 z m 0,-2 h 2 v 2 h -2 z m 0,4 h 2 v 2 h -2 z m 0,2 h 2 v 2 h -2 z m 0,2 h 2 v 2 h -2 z m -2,-8 h 2 v 2 h -2 z"
       style="stroke-width:0.24442221"
       id="rect3795-8-03-9-2-1-6-4" />
    <path
       d="m 190,195 h 2 v 2 h -2 z m -2,-2 h 2 v 2 h -2 z m 0,-2 h 2 v 2 h -2 z m 0,-8 h 2 v 2 h -2 z m 0,6 h 2 v 2 h -2 z m 0,-4 h 2 v 2 h -2 z m 2,2 h 2 v 2 h -2 z m -2,0 h 2 v 2 h -2 z m -2,0 h 2 v 2 h -2 z"
       style="stroke-width:0.24442221"
       id="rect3795-8-03-9-2-1-6-6-7-60" />
  </g>
</svg>
